<?xml version="1.0" standalone="no"?>
<!DOCTYPE svg PUBLIC "-//W3C//DTD SVG 20010904//EN"
 "http://www.w3.org/TR/2001/REC-SVG-20010904/DTD/svg10.dtd">
<svg version="1.0" xmlns="http://www.w3.org/2000/svg"
 width="500.000000pt" height="500.000000pt" viewBox="0 0 500.000000 500.000000"
 preserveAspectRatio="xMidYMid meet">

<g transform="translate(0.000000,500.000000) scale(0.100000,-0.100000)"
fill="#000000" stroke="none">
<path d="M2320 4990 c-299 -23 -626 -110 -895 -239 -588 -281 -1067 -813
-1275 -1416 -102 -295 -143 -534 -143 -830 0 -301 37 -521 134 -810 304 -906
1096 -1547 2069 -1676 123 -16 459 -16 580 0 484 65 913 246 1275 538 588 474
928 1187 928 1943 0 252 -28 447 -99 692 -113 396 -315 744 -604 1042 -293
302 -629 510 -1040 645 -280 91 -636 134 -930 111z m306 -1353 c43 -22 738
-601 853 -710 121 -116 124 -296 7 -413 -58 -57 -121 -84 -200 -84 -106 0
-128 13 -357 209 l-134 114 -5 -604 c-5 -589 -6 -605 -26 -649 -64 -136 -227
-203 -364 -151 -66 25 -134 87 -164 151 -20 44 -21 61 -26 649 l-5 603 -175
-146 c-186 -155 -223 -176 -315 -176 -80 0 -143 26 -201 84 -103 103 -115 273
-28 375 19 21 120 112 226 202 106 90 281 238 388 329 107 91 211 176 230 190
90 64 203 74 296 27z"/>
</g>
</svg>
